<?xml version="1.0" encoding="UTF-8"?>
<svg version="1.1" xmlns="http://www.w3.org/2000/svg" width="96" height="96">
<path d="M0 0 C1.59702003 -0.00956978 1.59702003 -0.00956978 3.2263031 -0.01933289 C4.37115677 -0.02044571 5.51601044 -0.02155853 6.69555664 -0.02270508 C7.87662491 -0.02603348 9.05769318 -0.02936188 10.27455139 -0.03279114 C12.77189749 -0.0378529 15.26925034 -0.04019969 17.76660156 -0.04003906 C21.58743418 -0.04222587 25.40797822 -0.06039073 29.22875977 -0.0793457 C31.65519107 -0.08227969 34.08162375 -0.08426445 36.50805664 -0.08520508 C38.2223008 -0.09598335 38.2223008 -0.09598335 39.97117615 -0.10697937 C41.03900833 -0.10390274 42.10684052 -0.10082611 43.20703125 -0.09765625 C44.14316757 -0.09908127 45.07930389 -0.10050629 46.04380798 -0.10197449 C49.7025622 0.24270695 52.57140828 1.24431702 55.41821289 3.58276367 C58.12068936 6.96085926 57.85508058 10.68937348 58.04321289 14.83276367 C58.45161646 21.00986767 58.87771268 26.89995817 63.08227539 31.78979492 C64.73899632 33.37773591 64.73899632 33.37773591 67.66821289 34.14526367 C67.66821289 36.12526367 67.66821289 38.10526367 67.66821289 40.14526367 C66.74008789 40.45463867 65.81196289 40.76401367 64.85571289 41.08276367 C61.01493849 43.56797064 60.3920235 45.06982631 59.17993164 49.33666992 C58.36023245 53.83562962 58.19621077 58.34534323 58.07446289 62.91088867 C57.51132419 67.39433909 55.82308314 69.99039343 52.66821289 73.14526367 C50.1008606 73.41268921 50.1008606 73.41268921 46.81323242 73.43579102 C44.97089523 73.45493057 44.97089523 73.45493057 43.09133911 73.47445679 C41.74456947 73.47751435 40.39779772 73.47974216 39.05102539 73.48120117 C37.67340963 73.48762643 36.29579524 73.49435459 34.91818237 73.50137329 C32.02802365 73.51335878 29.13798456 73.5170529 26.24780273 73.51586914 C22.54638582 73.51566603 18.84573747 73.54295251 15.14450264 73.57741356 C12.29800911 73.599667 9.45170086 73.60370716 6.60512924 73.60264969 C5.24077585 73.60500861 3.87641758 73.61384871 2.51214981 73.62931442 C0.60219471 73.64893596 -1.30798541 73.64062368 -3.21801758 73.63110352 C-4.30452606 73.63395355 -5.39103455 73.63680359 -6.51046753 73.63973999 C-10.01997854 73.02464835 -11.16772479 71.92329511 -13.33178711 69.14526367 C-14.44407026 65.80841422 -14.54612927 63.03178511 -14.70678711 59.52026367 C-15.21602302 50.98705183 -15.21602302 50.98705183 -18.33178711 43.14526367 C-21.33383077 41.01443765 -21.33383077 41.01443765 -24.33178711 40.14526367 C-24.33178711 38.16526367 -24.33178711 36.18526367 -24.33178711 34.14526367 C-23.56866211 33.93901367 -22.80553711 33.73276367 -22.01928711 33.52026367 C-18.45389547 31.69610981 -17.79621624 29.80633649 -16.33178711 26.14526367 C-14.84437837 21.42116972 -15.00791966 16.46589365 -14.80834961 11.55541992 C-14.17046111 6.99085713 -12.55400475 4.36748131 -9.33178711 1.14526367 C-6.21702104 0.07455869 -3.27531163 0.01334789 0 0 Z " fill="#6C1AFE" transform="translate(26.331787109375,10.854736328125)"/>
<path d="M0 0 C5.0428125 -0.0928125 5.0428125 -0.0928125 10.1875 -0.1875 C11.76374146 -0.22846802 11.76374146 -0.22846802 13.37182617 -0.27026367 C22.10553644 -0.34814602 22.10553644 -0.34814602 26 3 C28.51250583 6.76875875 28.53016086 8.53150134 28 13 C26.54006686 15.32978877 24.93880985 17.0127199 23 19 C23.969375 19.61875 24.93875 20.2375 25.9375 20.875 C29 23 29 23 30 25 C30.40710593 29.23390162 30.25575965 31.51588352 28.25 35.3125 C25.5441807 38.54445083 23.74570715 39.83976435 19.52636719 40.22705078 C18.62563477 40.21657715 17.72490234 40.20610352 16.796875 40.1953125 C15.91354492 40.19031738 15.03021484 40.18532227 14.12011719 40.18017578 C13.00797852 40.16196777 11.89583984 40.14375977 10.75 40.125 C7.2025 40.08375 3.655 40.0425 0 40 C0 26.8 0 13.6 0 0 Z " fill="#F3EAFD" transform="translate(34,28)"/>
<path d="M0 0 C2.0625 -0.061875 4.125 -0.12375 6.25 -0.1875 C7.99023438 -0.23970703 7.99023438 -0.23970703 9.765625 -0.29296875 C13.25717355 0.02329471 14.6141457 0.46937299 17 3 C17.5 6.5 17.5 6.5 17 10 C14.6141457 12.53062701 13.25717355 12.97670529 9.765625 13.29296875 C8.60546875 13.25816406 7.4453125 13.22335938 6.25 13.1875 C4.1875 13.125625 2.125 13.06375 0 13 C0 8.71 0 4.42 0 0 Z " fill="#6D1BFE" transform="translate(40,50)"/>
<path d="M0 0 C11.36442441 -0.49410541 11.36442441 -0.49410541 14.38671875 1.85546875 C16 4 16 4 16.0625 6.5625 C15 9 15 9 13.0625 10.8125 C8.59855766 12.54341642 4.77291591 12.19091664 0 12 C0 8.04 0 4.08 0 0 Z " fill="#6F1EFE" transform="translate(40,33)"/>
</svg>
